<svg width="100" height="84" viewBox="0 0 100 84" fill="none" xmlns="http://www.w3.org/2000/svg">
<path d="M95.8333 37.9481H75C73.8949 37.9481 72.8351 38.3871 72.0537 39.1685C71.2723 39.9499 70.8333 41.0097 70.8333 42.1148V79.6148C70.8333 80.7199 71.2723 81.7797 72.0537 82.5611C72.8351 83.3425 73.8949 83.7815 75 83.7815H95.8333C96.9384 83.7815 97.9982 83.3425 98.7796 82.5611C99.561 81.7797 100 80.7199 100 79.6148V42.1148C100 41.0097 99.561 39.9499 98.7796 39.1685C97.9982 38.3871 96.9384 37.9481 95.8333 37.9481ZM95.8333 75.4481H75V46.2815H95.8333V75.4481ZM83.3333 0.44812H8.33333C3.70833 0.44812 0 4.15645 0 8.78145V58.7815C0 60.9916 0.877974 63.1112 2.44078 64.674C4.00358 66.2368 6.1232 67.1148 8.33333 67.1148H37.5V75.4481H29.1667V83.7815H62.5V75.4481H54.1667V67.1148H62.5V58.7815H8.33333V8.78145H83.3333V29.6148H91.6667V8.78145C91.6667 4.15645 87.9167 0.44812 83.3333 0.44812ZM49.875 29.6148L45.8333 17.1148L41.7917 29.6148H29.1667L39.4583 36.9481L35.5417 49.0731L45.8333 41.5731L56.125 49.0731L52.2083 36.9481L62.5 29.6148H49.875Z" fill="#CAF0F8"/>
</svg>
