<svg width="100" height="101" viewBox="0 0 100 101" fill="none" xmlns="http://www.w3.org/2000/svg">
<path d="M95.8333 45.9482H75C73.8949 45.9482 72.8351 46.3871 72.0537 47.1685C71.2723 47.9499 70.8333 49.0098 70.8333 50.1148V87.6148C70.8333 88.7199 71.2723 89.7797 72.0537 90.5611C72.8351 91.3425 73.8949 91.7815 75 91.7815H95.8333C96.9384 91.7815 97.9982 91.3425 98.7796 90.5611C99.561 89.7797 100 88.7199 100 87.6148V50.1148C100 49.0098 99.561 47.9499 98.7796 47.1685C97.9982 46.3871 96.9384 45.9482 95.8333 45.9482ZM95.8333 83.4482H75V54.2815H95.8333V83.4482ZM83.3333 8.44815H8.33333C3.70833 8.44815 0 12.1565 0 16.7815V66.7815C0 68.9916 0.877974 71.1112 2.44078 72.674C4.00358 74.2368 6.1232 75.1148 8.33333 75.1148H37.5V83.4482H29.1667V91.7815H62.5V83.4482H54.1667V75.1148H62.5V66.7815H8.33333V16.7815H83.3333V37.6148H91.6667V16.7815C91.6667 12.1565 87.9167 8.44815 83.3333 8.44815ZM49.875 37.6148L45.8333 25.1148L41.7917 37.6148H29.1667L39.4583 44.9482L35.5417 57.0732L45.8333 49.5732L56.125 57.0732L52.2083 44.9482L62.5 37.6148H49.875Z" fill="#0077B6"/>
</svg>
